<?xml version="1.0" encoding="utf-8"?>
<!-- Generator: Adobe Illustrator 15.1.0, SVG Export Plug-In  -->
<!DOCTYPE svg PUBLIC "-//W3C//DTD SVG 1.0//EN" "http://www.w3.org/TR/2001/REC-SVG-20010904/DTD/svg10.dtd" [
	<!ENTITY ns_flows "http://ns.adobe.com/Flows/1.0/">
]>
<svg version="1.0"
	 xmlns="http://www.w3.org/2000/svg" xmlns:xlink="http://www.w3.org/1999/xlink" xmlns:a="http://ns.adobe.com/AdobeSVGViewerExtensions/3.0/"
	 x="0px" y="0px" width="425px" height="425px" viewBox="-40.938 -42.379 425 425"
	 overflow="visible" enable-background="new -40.938 -42.379 425 425" xml:space="preserve">
<defs>
</defs>
<g>
	<g>
		<g enable-background="new    ">
			<g>
				<polygon fill="#7C7463" points="8.633,284.879 7.694,273.675 0,2.835 0.664,3.378 				"/>
			</g>
			<g>
				<polygon fill="#857D6A" points="0.664,3.378 0,2.835 270.757,0 282.065,0.408 				"/>
			</g>
			<g>
				<polygon fill="#7C7463" points="17.677,339.69 8.633,284.879 0.664,3.378 8.754,10.651 				"/>
			</g>
			<g>
				<polygon fill="#867E6B" points="8.754,10.651 0.664,3.378 282.065,0.408 337.595,6.808 				"/>
			</g>
			<g>
				<polygon fill="#7C7463" points="21.18,353.981 17.677,339.69 8.754,10.651 12.123,13.747 				"/>
			</g>
			<g>
				<polygon fill="#877E6C" points="12.123,13.747 8.754,10.651 337.595,6.808 352.125,9.61 				"/>
			</g>
			<g>
				<polygon fill="#B3A68C" points="352.125,9.61 344.1,333.146 21.18,353.981 12.123,13.747 				"/>
			</g>
		</g>
	</g>
</g>
</svg>
