<?xml version="1.0" encoding="utf-8"?>
<!-- Generator: Adobe Illustrator 15.1.0, SVG Export Plug-In . SVG Version: 6.00 Build 0)  -->
<!DOCTYPE svg PUBLIC "-//W3C//DTD SVG 1.1//EN" "http://www.w3.org/Graphics/SVG/1.1/DTD/svg11.dtd">
<svg version="1.1" id="Ebene_1" xmlns="http://www.w3.org/2000/svg" xmlns:xlink="http://www.w3.org/1999/xlink" x="0px" y="0px"
	 width="440px" height="64px" viewBox="0 0 440 64" enable-background="new 0 0 440 64" xml:space="preserve">
<g id="texture.psd_1_" display="none">
	
		<image display="inline" overflow="visible" enable-background="new    " width="962" height="1704" id="texture_5_" xlink:href="323872AA.jpeg"  transform="matrix(0.6653 0 0 0.6667 7.324219e-04 9.765625e-04)">
	</image>
</g>
<g>
	<path fill="#604C3F" d="M131.676,21.777c-0.043-1.3-0.108-2.448-0.194-3.445h5.785c0.086,0.78,0.151,1.681,0.194,2.698
		c0.043,1.02,0.064,1.854,0.064,2.502h0.194c0.867-1.819,2.136-3.283,3.804-4.388c1.668-1.105,3.543-1.658,5.623-1.658
		c0.953,0,1.756,0.087,2.405,0.26l-0.262,5.655c-0.867-0.216-1.799-0.325-2.795-0.325c-1.473,0-2.752,0.271-3.834,0.812
		c-1.084,0.542-1.982,1.268-2.699,2.178c-0.715,0.91-1.246,1.961-1.592,3.152c-0.348,1.192-0.52,2.438-0.52,3.737v16.188h-6.111
		V24.963C131.74,24.14,131.719,23.077,131.676,21.777z"/>
	<path fill="#604C3F" d="M186.802,27.336c-0.735-1.973-1.782-3.694-3.145-5.169c-1.363-1.473-2.984-2.621-4.863-3.444
		c-1.881-0.823-3.967-1.235-6.258-1.235c-2.553,0-4.789,0.531-6.713,1.593c-0.622,0.345-1.178,0.729-1.703,1.135v5.447
		c0.856-0.905,1.855-1.644,3.016-2.193c1.277-0.606,2.697-0.91,4.259-0.91c1.688,0,3.174,0.304,4.453,0.91
		c1.276,0.606,2.35,1.43,3.217,2.47s1.518,2.233,1.951,3.575c0.432,1.344,0.647,2.729,0.647,4.161c0,1.431-0.217,2.816-0.647,4.159
		c-0.435,1.345-1.084,2.535-1.951,3.575c-0.867,1.041-1.939,1.875-3.217,2.503c-1.279,0.629-2.765,0.942-4.453,0.942
		c-1.562,0-2.98-0.303-4.259-0.91c-1.159-0.55-2.158-1.278-3.016-2.167v5.479c0.631,0.487,1.306,0.935,2.062,1.304
		c1.944,0.953,4.021,1.43,6.227,1.43c2.377,0,4.516-0.423,6.418-1.268s3.523-2.004,4.863-3.479c1.34-1.473,2.377-3.207,3.112-5.199
		c0.734-1.993,1.104-4.117,1.104-6.371C187.906,31.421,187.537,29.308,186.802,27.336z"/>
	<path fill="#604C3F" d="M196.421,21.777c-0.044-1.3-0.109-2.448-0.195-3.445h5.785c0.086,0.78,0.151,1.681,0.194,2.698
		c0.043,1.02,0.064,1.854,0.064,2.502h0.195c0.866-1.819,2.135-3.283,3.803-4.388c1.668-1.105,3.543-1.658,5.623-1.658
		c0.953,0,1.756,0.087,2.406,0.26l-0.263,5.655c-0.867-0.216-1.799-0.325-2.795-0.325c-1.473,0-2.752,0.271-3.834,0.812
		c-1.084,0.542-1.981,1.268-2.699,2.178c-0.715,0.91-1.246,1.961-1.592,3.152c-0.348,1.192-0.52,2.438-0.52,3.737v16.188h-6.111
		V24.963C196.484,24.14,196.464,23.077,196.421,21.777z"/>
	<path fill="#604C3F" d="M343.85,31.724h0.195l12.936-13.392h8.191L350.74,32.309l15.666,16.836h-8.449l-13.911-15.991h-0.195
		v15.991h-6.109V0h6.109V31.724L343.85,31.724z"/>
	<path fill="#604C3F" d="M387.303,23.338h-8.191v16.008c0,1.856,0.346,3.186,1.041,3.984c0.691,0.8,1.797,1.199,3.314,1.199
		c0.562,0,1.17-0.059,1.819-0.179c0.65-0.119,1.234-0.298,1.756-0.537l0.193,5.005c-0.736,0.26-1.549,0.465-2.438,0.618
		c-0.89,0.151-1.81,0.228-2.763,0.228c-2.903,0-5.125-0.801-6.664-2.404s-2.307-4.009-2.307-7.215V23.338h-8.916l5-5.006h3.916
		V9.491h6.045v8.841h8.191v5.006H387.303z"/>
	<path fill="#604C3F" d="M84.226,27.336c-0.735-1.973-1.784-3.694-3.146-5.169c-1.362-1.473-2.982-2.621-4.863-3.444
		s-3.966-1.235-6.258-1.235c-2.551,0-4.788,0.531-6.712,1.593c-0.636,0.353-1.202,0.747-1.737,1.162v5.455
		c0.863-0.922,1.874-1.671,3.049-2.229c1.277-0.606,2.697-0.91,4.258-0.91c1.689,0,3.174,0.304,4.453,0.91
		c1.276,0.606,2.35,1.43,3.217,2.47s1.517,2.233,1.95,3.575c0.433,1.344,0.649,2.729,0.649,4.161c0,1.431-0.217,2.816-0.649,4.159
		c-0.435,1.345-1.083,2.535-1.95,3.575c-0.867,1.041-1.94,1.875-3.217,2.503c-1.279,0.629-2.764,0.942-4.453,0.942
		c-1.561,0-2.98-0.303-4.258-0.91c-1.175-0.557-2.186-1.296-3.049-2.201v5.486c0.641,0.498,1.326,0.953,2.096,1.33
		c1.944,0.953,4.02,1.43,6.225,1.43c2.377,0,4.518-0.423,6.419-1.268c1.901-0.846,3.522-2.004,4.863-3.479
		c1.339-1.473,2.376-3.207,3.112-5.199c0.734-1.993,1.103-4.117,1.103-6.371C85.329,31.421,84.961,29.308,84.226,27.336z"/>
	<path fill="#604C3F" d="M112.422,42.462c-1.472,1.589-3.349,2.393-5.642,2.393c-1.43,0-2.602-0.26-3.511-0.78
		c-0.91-0.52-1.625-1.213-2.146-2.08c-0.52-0.866-0.877-1.874-1.073-3.022c-0.194-1.148-0.292-2.351-0.292-3.608V18.332h-6.109
		v19.111c0,1.734,0.228,3.359,0.683,4.875c0.455,1.519,1.148,2.851,2.08,3.998c0.932,1.148,2.123,2.047,3.575,2.698
		c1.452,0.649,3.174,0.975,5.168,0.975c2.253,0,4.301-0.575,6.143-1.723c0.404-0.252,0.772-0.521,1.125-0.796L112.422,42.462
		L112.422,42.462z"/>
	<path fill="#604C3F" d="M121.211,45.699c-0.043-1.3-0.063-2.36-0.063-3.185V18.332h-5.891v25.742h0.01
		c0,0.65,0.021,1.462,0.065,2.438c0.043,0.975,0.107,1.853,0.195,2.633h5.879C121.318,48.147,121.254,46.999,121.211,45.699z"/>
	<path fill="#604C3F" d="M280.193,41.863c-0.84,0.851-1.815,1.551-2.938,2.084c-1.279,0.605-2.697,0.907-4.259,0.907
		c-1.688,0-3.164-0.312-4.42-0.939c-1.258-0.626-2.317-1.458-3.186-2.495c-0.868-1.038-1.519-2.226-1.949-3.565
		c-0.434-1.339-0.65-2.722-0.65-4.148c0-1.426,0.218-2.808,0.65-4.147c0.432-1.339,1.082-2.527,1.949-3.564s1.928-1.857,3.186-2.463
		c1.256-0.604,2.73-0.908,4.42-0.908c1.562,0,2.979,0.304,4.259,0.908c1.123,0.533,2.1,1.243,2.938,2.11v-5.398
		c-0.54-0.41-1.107-0.804-1.736-1.163c-1.862-1.062-4.053-1.593-6.565-1.593c-2.297,0-4.398,0.413-6.306,1.235
		c-1.907,0.824-3.543,1.972-4.907,3.444c-1.365,1.475-2.416,3.196-3.152,5.168c-0.738,1.973-1.105,4.086-1.105,6.339
		c0,2.254,0.367,4.377,1.105,6.37c0.736,1.994,1.775,3.729,3.119,5.2c1.344,1.475,2.969,2.633,4.877,3.479
		c1.906,0.845,4.051,1.268,6.436,1.268c2.209,0,4.322-0.488,6.339-1.463c0.688-0.333,1.309-0.737,1.897-1.174L280.193,41.863
		L280.193,41.863z"/>
	<path fill="#604C3F" d="M318.165,42.6c-1.453,1.499-3.288,2.254-5.517,2.254c-1.43,0-2.6-0.26-3.51-0.78
		c-0.91-0.52-1.625-1.213-2.146-2.08s-0.879-1.874-1.074-3.022c-0.192-1.148-0.291-2.351-0.291-3.608v-17.03h-6.11v19.111
		c0,1.734,0.229,3.359,0.682,4.875c0.455,1.519,1.148,2.851,2.082,3.998c0.931,1.148,2.121,2.047,3.574,2.698
		c1.451,0.649,3.174,0.975,5.168,0.975c2.254,0,4.301-0.575,6.143-1.723c0.359-0.225,0.682-0.465,0.999-0.708V42.6L318.165,42.6z"/>
	<path fill="#604C3F" d="M327.08,45.699c-0.043-1.3-0.063-2.36-0.063-3.185V18.332H321v25.915c0.029-0.059,0.071-0.112,0.101-0.173
		H321c0,0.65,0.021,1.462,0.066,2.438c0.043,0.975,0.107,1.853,0.195,2.633h6.014C327.188,48.147,327.123,46.999,327.08,45.699z"/>
	<path fill="#604C3F" d="M232.024,44.775c-1.11-0.123-2.13-0.394-3.049-0.828c-1.283-0.604-2.359-1.426-3.229-2.463
		c-0.869-1.037-1.53-2.225-1.987-3.564s-0.685-2.744-0.685-4.214c0-1.468,0.228-2.873,0.685-4.213
		c0.457-1.339,1.118-2.516,1.987-3.531c0.869-1.017,1.945-1.825,3.229-2.432c0.919-0.434,1.938-0.706,3.049-0.829v-5.153
		c-1.822,0.128-3.551,0.501-5.18,1.142c-2.037,0.803-3.793,1.918-5.267,3.348c-1.475,1.431-2.633,3.133-3.479,5.104
		c-0.844,1.973-1.269,4.149-1.269,6.533s0.425,4.572,1.269,6.564c0.846,1.994,2.004,3.716,3.479,5.168
		c1.474,1.453,3.229,2.579,5.267,3.38c1.629,0.642,3.356,1.015,5.18,1.143V44.775z"/>
	<path fill="#604C3F" d="M248.783,27.141c-0.846-1.971-2.016-3.673-3.51-5.104c-1.496-1.43-3.262-2.545-5.299-3.348
		c-1.609-0.633-3.316-1.006-5.115-1.139v5.171c1.059,0.13,2.036,0.393,2.92,0.809c1.281,0.605,2.357,1.415,3.228,2.432
		c0.87,1.016,1.532,2.192,1.989,3.531c0.455,1.34,0.685,2.745,0.685,4.213c0,1.471-0.229,2.875-0.685,4.214
		c-0.457,1.34-1.119,2.527-1.989,3.564c-0.869,1.037-1.945,1.858-3.228,2.463c-0.884,0.417-1.861,0.679-2.92,0.81v5.17
		c1.799-0.134,3.506-0.506,5.115-1.14c2.037-0.801,3.803-1.928,5.299-3.38c1.494-1.452,2.664-3.174,3.51-5.168
		c0.847-1.993,1.269-4.182,1.269-6.564C250.052,31.29,249.63,29.112,248.783,27.141z"/>
	<polygon fill="#604C3F" points="58.677,64.681 58.677,46.938 58.677,36.229 58.677,31.249 58.677,25.024 58.677,23.143 
		58.677,18.332 52.696,18.332 52.696,64.745 58.807,64.745 58.807,64.681 	"/>
	<polygon fill="#604C3F" points="283.028,0 283.028,12.251 283.028,30.808 283.028,36.734 283.028,44.27 283.028,44.329 
		283.028,47.084 283.028,49.145 289.117,49.145 289.117,0 	"/>
	<polygon fill="#604C3F" points="161.286,64.681 161.286,58.692 161.254,58.692 161.254,38.139 161.254,36.181 161.254,31.298 
		161.254,26.359 161.254,23.143 161.254,19.995 161.254,18.332 155.274,18.332 155.274,64.745 161.383,64.745 161.383,64.681 	"/>
</g>
<rect id="_x3C_Slice_x3E__4_" x="99.997" y="59.081" display="none" fill="none" width="440" height="64.745"/>
</svg>
